<svg height='100px' width='100px'  fill="#F3F3F3" xmlns="http://www.w3.org/2000/svg" xmlns:xlink="http://www.w3.org/1999/xlink" viewBox="0 0 40 40" version="1.1" x="0px" y="0px"><title>More</title><desc>Created with Sketch.</desc><g stroke="none" stroke-width="1" fill="none" fill-rule="evenodd"><g fill="#F3F3F3" fill-rule="nonzero"><path d="M0,20 C0,18.8954305 0.8954305,18 2,18 C3.1045695,18 4,18.8954305 4,20 C4,21.1045695 4.8954305,22 6,22 C7.1045695,22 8,21.1045695 8,20 C8,18.8954305 7.1045695,18 6,18 C4.8954305,18 4,17.1045695 4,16 C4,14.8954305 4.8954305,14 6,14 C9.3137085,14 12,16.6862915 12,20 C12,23.3137085 9.3137085,26 6,26 C2.6862915,26 0,23.3137085 0,20 Z"></path><path d="M20,26 C16.6862915,26 14,23.3137085 14,20 C14,16.6862915 16.6862915,14 20,14 C23.3137085,14 26,16.6862915 26,20 C26,23.3137085 23.3137085,26 20,26 Z M20,22 C21.1045695,22 22,21.1045695 22,20 C22,18.8954305 21.1045695,18 20,18 C18.8954305,18 18,18.8954305 18,20 C18,21.1045695 18.8954305,22 20,22 Z"></path><path d="M34,26 C30.6862915,26 28,23.3137085 28,20 C28,16.6862915 30.6862915,14 34,14 C37.3137085,14 40,16.6862915 40,20 C40,23.3137085 37.3137085,26 34,26 Z M34,22 C35.1045695,22 36,21.1045695 36,20 C36,18.8954305 35.1045695,18 34,18 C32.8954305,18 32,18.8954305 32,20 C32,21.1045695 32.8954305,22 34,22 Z"></path></g></g></svg>